<svg xmlns="http://www.w3.org/2000/svg" width="32" height="32" fill="#cfcfcf"><path d="M7.433 24a1.718 1.718 0 0 1-1.39-.706l-2.092-2.868a.826.826 0 0 0-.179-.18l-3.07-2.261a1.723 1.723 0 0 1-.197-2.608A1.792 1.792 0 0 1 2.501 15l2.325 1.017 4.729-5.095a.302.302 0 0 0-.067-.465L1.351 6.149C.837 5.84.524 5.357.457 4.804A1.79 1.79 0 0 1 .971 3.31a1.585 1.585 0 0 1 1.471-.43l11.891 2.518a.303.303 0 0 0 .291-.087l4.265-4.53c.456-.483 1.224-.767 2.107-.78.894.006 1.756.271 2.245.76.488.489.772 1.329.759 2.247-.013.884-.297 1.652-.779 2.107l-4.542 4.281a.303.303 0 0 0-.09.293l2.735 12.028a1.589 1.589 0 0 1-.427 1.494 1.8 1.8 0 0 1-2.81-.33l-4.55-8.41c-.044-.07-.143-.098-.196-.105a.3.3 0 0 0-.245.078L8.01 19.172l1.016 2.327a1.793 1.793 0 0 1-.377 1.997A1.718 1.718 0 0 1 7.433 24zm-5.654-7.651a.3.3 0 0 0-.213.089.226.226 0 0 0 .026.34l3.07 2.26c.192.141.361.311.502.505l2.091 2.867a.22.22 0 0 0 .333.026.304.304 0 0 0 .063-.336l-1.229-2.815a.75.75 0 0 1 .177-.85l5.476-5.089c.398-.37.936-.539 1.469-.465.537.073 1.007.38 1.291.842l4.55 8.41c.046.073.147.1.201.106a.306.306 0 0 0 .249-.087c0-.002.026-.099.025-.101l-2.734-12.022a1.805 1.805 0 0 1 .525-1.726l4.54-4.279c.148-.14.301-.515.309-1.039.008-.571-.16-1.004-.32-1.165s-.586-.32-1.164-.32c-.522.007-.897.161-1.038.309l-4.262 4.527a1.81 1.81 0 0 1-1.701.528L2.125 4.346c-.184.115-.186.22-.179.275a.296.296 0 0 0 .143.223l8.138 4.307c.502.302.813.772.89 1.312a1.795 1.795 0 0 1-.462 1.478l-5.092 5.486a.75.75 0 0 1-.85.177L1.9 16.374a.302.302 0 0 0-.121-.025zM22.706 4.57h.01-.01z"/></svg>