<svg xmlns="http://www.w3.org/2000/svg" width="32" height="32" viewBox="0 0 24 24" fill="#cfcfcf"><g fill-rule="evenodd"><path d="M8.715 4.528a3.293 3.293 0 1 1 6.57 0l-1.18 16.511a2.111 2.111 0 0 1-4.21 0L8.714 4.528ZM12 2a2.293 2.293 0 0 0-2.287 2.457l1.179 16.511a1.111 1.111 0 0 0 2.216 0l1.18-16.511A2.293 2.293 0 0 0 12 2Z"/><path d="M9.366 6.16a.5.5 0 0 1-.026.706L2.5 13.218v1.899l6.743-4.046a.5.5 0 1 1 .514.858l-7.5 4.5A.5.5 0 0 1 1.5 16v-3a.5.5 0 0 1 .16-.366l7-6.5a.5.5 0 0 1 .706.026ZM14.634 6.16a.5.5 0 0 0 .026.706l6.84 6.352v1.899l-6.743-4.046a.5.5 0 1 0-.514.858l7.5 4.5A.5.5 0 0 0 22.5 16v-3a.5.5 0 0 0-.16-.366l-7-6.5a.5.5 0 0 0-.706.026ZM10.424 18.235a.5.5 0 0 1-.159.689L6.5 21.277V22H12a.5.5 0 0 1 0 1H6a.5.5 0 0 1-.5-.5V21a.5.5 0 0 1 .235-.424l4-2.5a.5.5 0 0 1 .689.159Z"/><path d="M13.576 18.235a.5.5 0 0 0 .159.689l3.765 2.353V22H12a.5.5 0 0 0 0 1h6a.5.5 0 0 0 .5-.5V21a.5.5 0 0 0-.235-.424l-4-2.5a.5.5 0 0 0-.689.159Z"/></g></svg>