<svg xmlns="http://www.w3.org/2000/svg" width="32" height="32" viewBox="0 0 24 24" fill="#cfcfcf"><g fill-rule="evenodd"><path d="M11.743 3.571a.5.5 0 0 1 .514 0l10 6a.5.5 0 0 1 0 .858l-10 6a.5.5 0 0 1-.514 0l-10-6a.5.5 0 0 1 0-.858l10-6ZM2.972 10 12 15.417 21.028 10 12 4.583 2.972 10Z"/><path d="M21.5 9.5a.5.5 0 0 1 .5.5v4.5a.5.5 0 0 1-1 0V10a.5.5 0 0 1 .5-.5ZM6 12a.5.5 0 0 1 .5.5v4A2.5 2.5 0 0 0 9 19h6a2.5 2.5 0 0 0 2.5-2.5v-4a.5.5 0 0 1 1 0v4A3.5 3.5 0 0 1 15 20H9a3.5 3.5 0 0 1-3.5-3.5v-4A.5.5 0 0 1 6 12Z"/></g></svg>