<svg xmlns="http://www.w3.org/2000/svg" width="32" height="32" viewBox="0 0 24 24" fill="#cfcfcf"><g fill-rule="evenodd" ><path d="M8.843 10.206A1.5 1.5 0 0 1 10.167 8h4.023c3.76 0 7.216 2.073 8.985 5.391.751 1.408-.27 3.109-1.865 3.109H14.9a4.5 4.5 0 0 1-3.97-2.382l-2.087-3.912ZM10.167 9a.5.5 0 0 0-.442.735l2.087 3.912A3.5 3.5 0 0 0 14.9 15.5h6.41c.841 0 1.379-.896.983-1.638A9.184 9.184 0 0 0 14.19 9h-4.023Z"/><path d="M3.5 9.5A.5.5 0 0 1 4 9h5.035a.5.5 0 0 1 .441.265l1.332 2.5a.5.5 0 0 1-.44.735H4a.5.5 0 0 1-.5-.5V9.5Zm1 .5v1.5h5.034L8.735 10H4.5Z"/><path d="M.622 7.172A.5.5 0 0 1 1 7h1.5a.5.5 0 0 1 .4.2l1.5 2a.5.5 0 0 1 .1.3V12a.5.5 0 0 1-.071.257l-1.5 2.5A.5.5 0 0 1 2.5 15H1a.5.5 0 0 1-.495-.57L.995 11l-.49-3.43a.5.5 0 0 1 .117-.398ZM1.577 8l.418 2.93a.5.5 0 0 1 0 .14L1.577 14h.64L3.5 11.861V9.668L2.25 8h-.673ZM16.5 8.5a.5.5 0 0 1 .5.5v2a1.5 1.5 0 0 0 1.5 1.5H22a.5.5 0 0 1 0 1h-3.5A2.5 2.5 0 0 1 16 11V9a.5.5 0 0 1 .5-.5ZM12.846 10.502a.5.5 0 0 1 .686.17l1.292 2.14a.5.5 0 0 1-.856.517l-1.292-2.141a.5.5 0 0 1 .17-.686ZM20.5 15.5a.5.5 0 0 1 .5.5v3a.5.5 0 0 1-1 0v-3a.5.5 0 0 1 .5-.5ZM15 15.5a.5.5 0 0 1 .5.5v3a.5.5 0 0 1-1 0v-3a.5.5 0 0 1 .5-.5Z"/><path d="M11.084 17.723a.5.5 0 0 1 .693-.139l1.374.916h8.642l.854-.854a.5.5 0 0 1 .707.708l-1 1A.5.5 0 0 1 22 19.5h-9a.5.5 0 0 1-.277-.084l-1.5-1a.5.5 0 0 1-.139-.693ZM13.5 5.5a.5.5 0 0 1 .5.5v2.5a.5.5 0 0 1-1 0V6a.5.5 0 0 1 .5-.5Z"/><path d="M8.5 6a.5.5 0 0 1 .5-.5h9a.5.5 0 0 1 0 1H9a.5.5 0 0 1-.5-.5Z"/></g></svg>